<svg width="250" height="250" viewBox="0 0 250 250" fill="none" xmlns="http://www.w3.org/2000/svg">
<g clip-path="url(#clip0_17_32)">
<path d="M231.545 0H18.4549C13.5603 0 8.86626 1.94435 5.40531 5.40531C1.94435 8.86627 -1.83105e-06 13.5603 -1.83105e-06 18.4549V231.545C-1.83105e-06 236.44 1.94435 241.134 5.40531 244.595C8.86626 248.056 13.5603 250 18.4549 250H231.545C236.44 250 241.134 248.056 244.595 244.595C248.056 241.134 250 236.44 250 231.545V18.4549C250 13.5603 248.056 8.86627 244.595 5.40531C241.134 1.94435 236.44 0 231.545 0ZM74.5139 212.969H36.9271V93.5764H74.5139V212.969ZM55.6945 77.0313C51.4309 77.0072 47.27 75.7208 43.7368 73.3342C40.2037 70.9477 37.4567 67.568 35.8425 63.6218C34.2283 59.6755 33.8192 55.3395 34.667 51.161C35.5147 46.9825 37.5813 43.1487 40.6058 40.1436C43.6303 37.1384 47.4772 35.0965 51.6611 34.2756C55.845 33.4547 60.1783 33.8916 64.1141 35.5311C68.0499 37.1706 71.4119 39.9392 73.7757 43.4876C76.1395 47.036 77.3992 51.2051 77.3958 55.4688C77.4361 58.3233 76.9012 61.1567 75.823 63.8C74.7449 66.4434 73.1456 68.8427 71.1205 70.8549C69.0954 72.867 66.6859 74.4509 64.0357 75.512C61.3854 76.5731 58.5486 77.0898 55.6945 77.0313ZM213.056 213.073H175.486V147.847C175.486 128.611 167.309 122.674 156.753 122.674C145.608 122.674 134.67 131.076 134.67 148.333V213.073H97.0833V93.6632H133.229V110.208H133.715C137.344 102.865 150.052 90.3125 169.444 90.3125C190.417 90.3125 213.073 102.76 213.073 139.219L213.056 213.073Z" fill="#0A66C2"/>
</g>
<defs>
<clipPath id="clip0_17_32">
<rect width="250" height="250" fill="white"/>
</clipPath>
</defs>
</svg>
