<svg width="25" height="25" viewBox="0 0 25 25" fill="none" xmlns="http://www.w3.org/2000/svg">
<g clip-path="url(#clip0_16_3570)">
<path d="M11.9604 21.7958C11.6622 21.7081 11.3929 21.5418 11.1809 21.3144C10.9689 21.087 10.8219 20.8068 10.7552 20.5031C10.6886 20.2283 10.5581 19.9731 10.3743 19.7583C10.1904 19.5435 9.95845 19.3752 9.69724 19.2669C9.43603 19.1587 9.15295 19.1137 8.87106 19.1356C8.58916 19.1574 8.31641 19.2455 8.075 19.3927C6.46771 20.3719 4.62708 18.5323 5.60625 16.924C5.75323 16.6827 5.8412 16.4101 5.863 16.1284C5.88481 15.8467 5.83984 15.5638 5.73174 15.3027C5.62365 15.0417 5.45548 14.8098 5.24091 14.626C5.02634 14.4422 4.77142 14.3116 4.49687 14.2448C2.66771 13.801 2.66771 11.199 4.49687 10.7552C4.77167 10.6886 5.02685 10.5581 5.24167 10.3743C5.45648 10.1904 5.62485 9.95845 5.73307 9.69724C5.84129 9.43603 5.8863 9.15295 5.86445 8.87106C5.84259 8.58916 5.75448 8.31641 5.60729 8.075C4.62812 6.46771 6.46771 4.62708 8.07604 5.60625C9.11771 6.23958 10.4677 5.67917 10.7552 4.49688C11.199 2.66771 13.801 2.66771 14.2448 4.49688C14.3114 4.77167 14.4419 5.02685 14.6257 5.24167C14.8096 5.45648 15.0416 5.62485 15.3028 5.73307C15.564 5.84129 15.847 5.8863 16.1289 5.86445C16.4108 5.84259 16.6836 5.75448 16.925 5.60729C18.5323 4.62813 20.3729 6.46771 19.3937 8.07604C19.2468 8.31735 19.1588 8.58993 19.137 8.87164C19.1152 9.15334 19.1602 9.43622 19.2683 9.69727C19.3764 9.95832 19.5445 10.1902 19.7591 10.374C19.9737 10.5578 20.2286 10.6884 20.5031 10.7552C21.8698 11.0865 22.2156 12.624 21.5396 13.5646" stroke="black" stroke-width="1.5" stroke-linecap="round" stroke-linejoin="round"/>
<path d="M9.375 12.5C9.375 13.3288 9.70424 14.1237 10.2903 14.7097C10.8763 15.2958 11.6712 15.625 12.5 15.625C13.3288 15.625 14.1237 15.2958 14.7097 14.7097C15.2958 14.1237 15.625 13.3288 15.625 12.5C15.625 11.6712 15.2958 10.8763 14.7097 10.2903C14.1237 9.70424 13.3288 9.375 12.5 9.375C11.6712 9.375 10.8763 9.70424 10.2903 10.2903C9.70424 10.8763 9.375 11.6712 9.375 12.5Z" stroke="black" stroke-width="1.5" stroke-linecap="round" stroke-linejoin="round"/>
<path d="M20.8335 21.8752L22.9168 19.7918L20.8335 17.7085" stroke="black" stroke-width="1.5" stroke-linecap="round" stroke-linejoin="round"/>
<path d="M17.7083 17.7085L15.625 19.7918L17.7083 21.8752" stroke="black" stroke-width="1.5" stroke-linecap="round" stroke-linejoin="round"/>
</g>
<defs>
<clipPath id="clip0_16_3570">
<rect width="25" height="25" fill="white"/>
</clipPath>
</defs>
</svg>
